{
  "accessors": [
    {
      "bufferView": 2,
      "componentType": 5126,
      "count": 65532,
      "max": [
        0.04720856249332428,
        0.06224236264824867,
        0.08064456284046173
      ],
      "min": [
        -0.03730274736881256,
        -0.027197642251849174,
        0.0
      ],
      "type": "VEC3"
    },
    {
      "bufferView": 2,
      "byteOffset": 786384,
      "componentType": 5126,
      "count": 65532,
      "max": [
        1.0,
        1.0,
        0.9999936819076538
      ],
      "min": [
        -0.9999990463256836,
        -0.9999735355377197,
        -0.9998558163642883
      ],
      "type": "VEC3"
    },
    {
      "bufferView": 1,
      "componentType": 5126,
      "count": 65532,
      "max": [
        0.999392569065094,
        0.9733885526657104
      ],
      "min": [
        0.000244140625,
        0.0002458287635818124
      ],
      "type": "VEC2"
    },
    {
      "bufferView": 1,
      "byteOffset": 524256,
      "componentType": 5126,
      "count": 65532,
      "max": [
        0.999392569065094,
        0.9733885526657104
      ],
      "min": [
        0.000244140625,
        0.0002458287635818124
      ],
      "type": "VEC2"
    },
    {
      "bufferView": 0,
      "componentType": 5125,
      "count": 270594,
      "type": "SCALAR"
    },
    {
      "bufferView": 2,
      "byteOffset": 1572768,
      "componentType": 5126,
      "count": 65532,
      "max": [
        0.047107383608818054,
        0.062242861837148666,
        0.0803363174200058
      ],
      "min": [
        -0.01132175326347351,
        -0.0046764276921749115,
        0.0363958477973938
      ],
      "type": "VEC3"
    },
    {
      "bufferView": 2,
      "byteOffset": 2359152,
      "componentType": 5126,
      "count": 65532,
      "max": [
        0.9999384880065918,
        0.9999469518661499,
        0.9999971389770508
      ],
      "min": [
        -0.9999963641166687,
        -0.9999059438705444,
        -0.9997752904891968
      ],
      "type": "VEC3"
    },
    {
      "bufferView": 1,
      "byteOffset": 1048512,
      "componentType": 5126,
      "count": 65532,
      "max": [
        0.9997348189353943,
        0.9685057401657104
      ],
      "min": [
        0.000244140625,
        0.0002534581581130624
      ],
      "type": "VEC2"
    },
    {
      "bufferView": 1,
      "byteOffset": 1572768,
      "componentType": 5126,
      "count": 65532,
      "max": [
        0.9997348189353943,
        0.9685057401657104
      ],
      "min": [
        0.000244140625,
        0.0002534581581130624
      ],
      "type": "VEC2"
    },
    {
      "bufferView": 0,
      "byteOffset": 1082376,
      "componentType": 5125,
      "count": 247758,
      "type": "SCALAR"
    },
    {
      "bufferView": 2,
      "byteOffset": 3145536,
      "componentType": 5126,
      "count": 65534,
      "max": [
        0.0471750944852829,
        0.06224236264824867,
        0.08064456284046173
      ],
      "min": [
        -0.010045498609542847,
        -0.0003020055592060089,
        0.028412967920303345
      ],
      "type": "VEC3"
    },
    {
      "bufferView": 2,
      "byteOffset": 3931944,
      "componentType": 5126,
      "count": 65534,
      "max": [
        0.9999857544898987,
        0.9998218417167664,
        0.9999995231628418
      ],
      "min": [
        -0.9999912977218628,
        -0.9998915195465088,
        -0.999952495098114
      ],
      "type": "VEC3"
    },
    {
      "bufferView": 1,
      "byteOffset": 2097024,
      "componentType": 5126,
      "count": 65534,
      "max": [
        0.9997498989105225,
        0.9753416776657104
      ],
      "min": [
        0.000244140625,
        0.0002470804611220956
      ],
      "type": "VEC2"
    },
    {
      "bufferView": 1,
      "byteOffset": 2621296,
      "componentType": 5126,
      "count": 65534,
      "max": [
        0.9997498989105225,
        0.9753416776657104
      ],
      "min": [
        0.000244140625,
        0.0002470804611220956
      ],
      "type": "VEC2"
    },
    {
      "bufferView": 0,
      "byteOffset": 2073408,
      "componentType": 5125,
      "count": 216735,
      "type": "SCALAR"
    },
    {
      "bufferView": 2,
      "byteOffset": 4718352,
      "componentType": 5126,
      "count": 65532,
      "max": [
        0.04699833691120148,
        0.06223546341061592,
        0.07684609293937683
      ],
      "min": [
        -0.011707082390785217,
        -0.0025139562785625458,
        0.015614569187164307
      ],
      "type": "VEC3"
    },
    {
      "bufferView": 2,
      "byteOffset": 5504736,
      "componentType": 5126,
      "count": 65532,
      "max": [
        0.9973889589309692,
        0.9999846816062927,
        0.9999998211860657
      ],
      "min": [
        -0.9999980330467224,
        -0.9999735951423645,
        -0.9991306662559509
      ],
      "type": "VEC3"
    },
    {
      "bufferView": 1,
      "byteOffset": 3145568,
      "componentType": 5126,
      "count": 65532,
      "max": [
        0.9997289180755615,
        0.9685057401657104
      ],
      "min": [
        0.000244140625,
        0.00024600757751613855
      ],
      "type": "VEC2"
    },
    {
      "bufferView": 1,
      "byteOffset": 3669824,
      "componentType": 5126,
      "count": 65532,
      "max": [
        0.9997289180755615,
        0.9685057401657104
      ],
      "min": [
        0.000244140625,
        0.00024600757751613855
      ],
      "type": "VEC2"
    },
    {
      "bufferView": 0,
      "byteOffset": 2940348,
      "componentType": 5125,
      "count": 226875,
      "type": "SCALAR"
    },
    {
      "bufferView": 2,
      "byteOffset": 6291120,
      "componentType": 5126,
      "count": 65532,
      "max": [
        0.04720045626163483,
        0.0622314028441906,
        0.08056649565696716
      ],
      "min": [
        -0.019910767674446106,
        -0.04372724890708923,
        0.017261698842048645
      ],
      "type": "VEC3"
    },
    {
      "bufferView": 2,
      "byteOffset": 7077504,
      "componentType": 5126,
      "count": 65532,
      "max": [
        0.9998498558998108,
        0.9998738765716553,
        0.9999936819076538
      ],
      "min": [
        -0.9999908804893494,
        -0.999983549118042,
        -0.9999626874923706
      ],
      "type": "VEC3"
    },
    {
      "bufferView": 1,
      "byteOffset": 4194080,
      "componentType": 5126,
      "count": 65532,
      "max": [
        0.9997481107711792,
        0.9685057401657104
      ],
      "min": [
        0.000244140625,
        0.00024481548462063074
      ],
      "type": "VEC2"
    },
    {
      "bufferView": 1,
      "byteOffset": 4718336,
      "componentType": 5126,
      "count": 65532,
      "max": [
        0.9997481107711792,
        0.9685057401657104
      ],
      "min": [
        0.000244140625,
        0.00024481548462063074
      ],
      "type": "VEC2"
    },
    {
      "bufferView": 0,
      "byteOffset": 3847848,
      "componentType": 5125,
      "count": 226311,
      "type": "SCALAR"
    },
    {
      "bufferView": 2,
      "byteOffset": 7863888,
      "componentType": 5126,
      "count": 65532,
      "max": [
        0.0472097247838974,
        0.0004372112452983856,
        0.08118291944265366
      ],
      "min": [
        -0.011542528867721558,
        -0.04032956808805466,
        0.018528923392295837
      ],
      "type": "VEC3"
    },
    {
      "bufferView": 2,
      "byteOffset": 8650272,
      "componentType": 5126,
      "count": 65532,
      "max": [
        0.9999992251396179,
        0.9999954104423523,
        0.9999849200248718
      ],
      "min": [
        -0.9999968409538269,
        -0.9999827742576599,
        -0.9999489188194275
      ],
      "type": "VEC3"
    },
    {
      "bufferView": 1,
      "byteOffset": 5242592,
      "componentType": 5126,
      "count": 65532,
      "max": [
        0.9997363686561584,
        0.9694823026657104
      ],
      "min": [
        0.000244140625,
        0.00024678243789821863
      ],
      "type": "VEC2"
    },
    {
      "bufferView": 1,
      "byteOffset": 5766848,
      "componentType": 5126,
      "count": 65532,
      "max": [
        0.9997363686561584,
        0.9694823026657104
      ],
      "min": [
        0.000244140625,
        0.00024678243789821863
      ],
      "type": "VEC2"
    },
    {
      "bufferView": 0,
      "byteOffset": 4753092,
      "componentType": 5125,
      "count": 259518,
      "type": "SCALAR"
    },
    {
      "bufferView": 2,
      "byteOffset": 9436656,
      "componentType": 5126,
      "count": 65532,
      "max": [
        0.047202691435813904,
        -7.506832480430603e-05,
        0.0812702476978302
      ],
      "min": [
        -0.03405816853046417,
        -0.06231006607413292,
        0.0
      ],
      "type": "VEC3"
    },
    {
      "bufferView": 2,
      "byteOffset": 10223040,
      "componentType": 5126,
      "count": 65532,
      "max": [
        0.9999879598617554,
        0.9994164109230042,
        0.9999972581863403
      ],
      "min": [
        -0.9999926090240479,
        -0.9999988079071045,
        -0.9990042448043823
      ],
      "type": "VEC3"
    },
    {
      "bufferView": 1,
      "byteOffset": 6291104,
      "componentType": 5126,
      "count": 65532,
      "max": [
        0.999750554561615,
        0.9704588651657104
      ],
      "min": [
        0.000244140625,
        0.00024785532150417566
      ],
      "type": "VEC2"
    },
    {
      "bufferView": 1,
      "byteOffset": 6815360,
      "componentType": 5126,
      "count": 65532,
      "max": [
        0.999750554561615,
        0.9704588651657104
      ],
      "min": [
        0.000244140625,
        0.00024785532150417566
      ],
      "type": "VEC2"
    },
    {
      "bufferView": 0,
      "byteOffset": 5791164,
      "componentType": 5125,
      "count": 235920,
      "type": "SCALAR"
    },
    {
      "bufferView": 2,
      "byteOffset": 11009424,
      "componentType": 5126,
      "count": 65532,
      "max": [
        0.04720045626163483,
        0.06224236264824867,
        0.08098572492599487
      ],
      "min": [
        -0.03781513869762421,
        -0.06225496903061867,
        0.0
      ],
      "type": "VEC3"
    },
    {
      "bufferView": 2,
      "byteOffset": 11795808,
      "componentType": 5126,
      "count": 65532,
      "max": [
        0.9999024271965027,
        0.9999808669090271,
        0.9999955296516418
      ],
      "min": [
        -0.9999226331710815,
        -0.9999999403953552,
        -0.9975965619087219
      ],
      "type": "VEC3"
    },
    {
      "bufferView": 1,
      "byteOffset": 7339616,
      "componentType": 5126,
      "count": 65532,
      "max": [
        0.9997464418411255,
        0.9714354276657104
      ],
      "min": [
        0.000244140625,
        0.00024463667068630457
      ],
      "type": "VEC2"
    },
    {
      "bufferView": 1,
      "byteOffset": 7863872,
      "componentType": 5126,
      "count": 65532,
      "max": [
        0.9997464418411255,
        0.9714354276657104
      ],
      "min": [
        0.000244140625,
        0.00024463667068630457
      ],
      "type": "VEC2"
    },
    {
      "bufferView": 0,
      "byteOffset": 6734844,
      "componentType": 5125,
      "count": 231426,
      "type": "SCALAR"
    },
    {
      "bufferView": 2,
      "byteOffset": 12582192,
      "componentType": 5126,
      "count": 65533,
      "max": [
        0.04719831049442291,
        -2.425163984298706e-06,
        0.07711049914360046
      ],
      "min": [
        -0.00035685300827026367,
        -0.0622447207570076,
        0.05099719017744064
      ],
      "type": "VEC3"
    },
    {
      "bufferView": 2,
      "byteOffset": 13368588,
      "componentType": 5126,
      "count": 65533,
      "max": [
        0.9999781250953674,
        0.9996895790100098,
        0.9999892115592957
      ],
      "min": [
        -0.9999968409538269,
        -0.9999324679374695,
        -0.9996694922447205
      ],
      "type": "VEC3"
    },
    {
      "bufferView": 1,
      "byteOffset": 8388128,
      "componentType": 5126,
      "count": 65533,
      "max": [
        0.9997231960296631,
        0.9694823026657104
      ],
      "min": [
        0.000244140625,
        0.0002500606933608651
      ],
      "type": "VEC2"
    },
    {
      "bufferView": 1,
      "byteOffset": 8912392,
      "componentType": 5126,
      "count": 65533,
      "max": [
        0.9997231960296631,
        0.9694823026657104
      ],
      "min": [
        0.000244140625,
        0.0002500606933608651
      ],
      "type": "VEC2"
    },
    {
      "bufferView": 0,
      "byteOffset": 7660548,
      "componentType": 5125,
      "count": 220635,
      "type": "SCALAR"
    },
    {
      "bufferView": 2,
      "byteOffset": 14154984,
      "componentType": 5126,
      "count": 65532,
      "max": [
        0.04719831049442291,
        0.06224236264824867,
        0.0773974061012268
      ],
      "min": [
        -0.04762372374534607,
        -0.06247182562947273,
        0.0
      ],
      "type": "VEC3"
    },
    {
      "bufferView": 2,
      "byteOffset": 14941368,
      "componentType": 5126,
      "count": 65532,
      "max": [
        0.9999975562095642,
        0.9993000030517578,
        0.9999934434890747
      ],
      "min": [
        -1.0,
        -0.9999943375587463,
        -0.9964180588722229
      ],
      "type": "VEC3"
    },
    {
      "bufferView": 1,
      "byteOffset": 9436656,
      "componentType": 5126,
      "count": 65532,
      "max": [
        0.9997292757034302,
        0.9694823026657104
      ],
      "min": [
        0.000244140625,
        0.0002452327171340585
      ],
      "type": "VEC2"
    },
    {
      "bufferView": 1,
      "byteOffset": 9960912,
      "componentType": 5126,
      "count": 65532,
      "max": [
        0.9997292757034302,
        0.9694823026657104
      ],
      "min": [
        0.000244140625,
        0.0002452327171340585
      ],
      "type": "VEC2"
    },
    {
      "bufferView": 0,
      "byteOffset": 8543088,
      "componentType": 5125,
      "count": 222522,
      "type": "SCALAR"
    },
    {
      "bufferView": 2,
      "byteOffset": 15727752,
      "componentType": 5126,
      "count": 48629,
      "max": [
        0.04719831049442291,
        0.062473226338624954,
        0.08066738396883011
      ],
      "min": [
        -0.04790365695953369,
        -0.06224236264824867,
        0.0
      ],
      "type": "VEC3"
    },
    {
      "bufferView": 2,
      "byteOffset": 16311300,
      "componentType": 5126,
      "count": 48629,
      "max": [
        0.9999394416809082,
        0.9996091723442078,
        0.9999995231628418
      ],
      "min": [
        -0.9999974370002747,
        -0.9997906684875488,
        -0.9957352876663208
      ],
      "type": "VEC3"
    },
    {
      "bufferView": 1,
      "byteOffset": 10485168,
      "componentType": 5126,
      "count": 48629,
      "max": [
        0.9996153116226196,
        0.9694823026657104
      ],
      "min": [
        0.000244140625,
        0.00026841892395168543
      ],
      "type": "VEC2"
    },
    {
      "bufferView": 1,
      "byteOffset": 10874200,
      "componentType": 5126,
      "count": 48629,
      "max": [
        0.9996153116226196,
        0.9694823026657104
      ],
      "min": [
        0.000244140625,
        0.00026841892395168543
      ],
      "type": "VEC2"
    },
    {
      "bufferView": 0,
      "byteOffset": 9433176,
      "componentType": 5125,
      "count": 155628,
      "type": "SCALAR"
    }
  ],
  "asset": {
    "extras": {
      "author": "Ruottalaine (https://sketchfab.com/Ruottalaine)",
      "license": "CC-BY-4.0 (http://creativecommons.org/licenses/by/4.0/)",
      "source": "https://sketchfab.com/3d-models/pp-215-2-468f279ef12e4c57b76ea3e999f92029",
      "title": "Pp-215-2"
    },
    "generator": "Sketchfab-15.34.0",
    "version": "2.0"
  },
  "bufferViews": [
    {
      "buffer": 0,
      "byteLength": 10055688,
      "name": "floatBufferViews",
      "target": 34963
    },
    {
      "buffer": 0,
      "byteLength": 11263232,
      "byteOffset": 10055688,
      "byteStride": 8,
      "name": "floatBufferViews",
      "target": 34962
    },
    {
      "buffer": 0,
      "byteLength": 16894848,
      "byteOffset": 21318920,
      "byteStride": 12,
      "name": "floatBufferViews",
      "target": 34962
    }
  ],
  "buffers": [
    {
      "byteLength": 38213768,
      "uri": "scene.bin"
    }
  ],
  "extensionsUsed": [
    "KHR_materials_unlit"
  ],
  "images": [
    {
      "uri": "textures/tex_u1_v1_baseColor.jpeg"
    }
  ],
  "materials": [
    {
      "doubleSided": true,
      "extensions": {
        "KHR_materials_unlit": {}
      },
      "name": "tex_u1_v1",
      "pbrMetallicRoughness": {
        "baseColorTexture": {
          "index": 0
        },
        "metallicFactor": 0.0
      }
    }
  ],
  "meshes": [
    {
      "name": "model_tex_u1_v1_0",
      "primitives": [
        {
          "attributes": {
            "NORMAL": 1,
            "POSITION": 0,
            "TEXCOORD_0": 2,
            "TEXCOORD_1": 3
          },
          "indices": 4,
          "material": 0,
          "mode": 4
        }
      ]
    },
    {
      "name": "model_tex_u1_v1_0",
      "primitives": [
        {
          "attributes": {
            "NORMAL": 6,
            "POSITION": 5,
            "TEXCOORD_0": 7,
            "TEXCOORD_1": 8
          },
          "indices": 9,
          "material": 0,
          "mode": 4
        }
      ]
    },
    {
      "name": "model_tex_u1_v1_0",
      "primitives": [
        {
          "attributes": {
            "NORMAL": 11,
            "POSITION": 10,
            "TEXCOORD_0": 12,
            "TEXCOORD_1": 13
          },
          "indices": 14,
          "material": 0,
          "mode": 4
        }
      ]
    },
    {
      "name": "model_tex_u1_v1_0",
      "primitives": [
        {
          "attributes": {
            "NORMAL": 16,
            "POSITION": 15,
            "TEXCOORD_0": 17,
            "TEXCOORD_1": 18
          },
          "indices": 19,
          "material": 0,
          "mode": 4
        }
      ]
    },
    {
      "name": "model_tex_u1_v1_0",
      "primitives": [
        {
          "attributes": {
            "NORMAL": 21,
            "POSITION": 20,
            "TEXCOORD_0": 22,
            "TEXCOORD_1": 23
          },
          "indices": 24,
          "material": 0,
          "mode": 4
        }
      ]
    },
    {
      "name": "model_tex_u1_v1_0",
      "primitives": [
        {
          "attributes": {
            "NORMAL": 26,
            "POSITION": 25,
            "TEXCOORD_0": 27,
            "TEXCOORD_1": 28
          },
          "indices": 29,
          "material": 0,
          "mode": 4
        }
      ]
    },
    {
      "name": "model_tex_u1_v1_0",
      "primitives": [
        {
          "attributes": {
            "NORMAL": 31,
            "POSITION": 30,
            "TEXCOORD_0": 32,
            "TEXCOORD_1": 33
          },
          "indices": 34,
          "material": 0,
          "mode": 4
        }
      ]
    },
    {
      "name": "model_tex_u1_v1_0",
      "primitives": [
        {
          "attributes": {
            "NORMAL": 36,
            "POSITION": 35,
            "TEXCOORD_0": 37,
            "TEXCOORD_1": 38
          },
          "indices": 39,
          "material": 0,
          "mode": 4
        }
      ]
    },
    {
      "name": "model_tex_u1_v1_0",
      "primitives": [
        {
          "attributes": {
            "NORMAL": 41,
            "POSITION": 40,
            "TEXCOORD_0": 42,
            "TEXCOORD_1": 43
          },
          "indices": 44,
          "material": 0,
          "mode": 4
        }
      ]
    },
    {
      "name": "model_tex_u1_v1_0",
      "primitives": [
        {
          "attributes": {
            "NORMAL": 46,
            "POSITION": 45,
            "TEXCOORD_0": 47,
            "TEXCOORD_1": 48
          },
          "indices": 49,
          "material": 0,
          "mode": 4
        }
      ]
    },
    {
      "name": "model_tex_u1_v1_0",
      "primitives": [
        {
          "attributes": {
            "NORMAL": 51,
            "POSITION": 50,
            "TEXCOORD_0": 52,
            "TEXCOORD_1": 53
          },
          "indices": 54,
          "material": 0,
          "mode": 4
        }
      ]
    }
  ],
  "nodes": [
    {
      "children": [
        1
      ],
      "matrix": [
        1.0,
        0.0,
        0.0,
        0.0,
        0.0,
        2.220446049250313e-16,
        -1.0,
        0.0,
        0.0,
        1.0,
        2.220446049250313e-16,
        0.0,
        0.0,
        0.0,
        0.0,
        1.0
      ],
      "name": "Sketchfab_model"
    },
    {
      "children": [
        2
      ],
      "matrix": [
        1.0,
        0.0,
        0.0,
        0.0,
        0.0,
        0.0,
        1.0,
        0.0,
        0.0,
        -1.0,
        0.0,
        0.0,
        0.0,
        0.0,
        0.0,
        1.0
      ],
      "name": "model.fbx"
    },
    {
      "children": [
        3
      ],
      "name": "RootNode"
    },
    {
      "children": [
        4,
        5,
        6,
        7,
        8,
        9,
        10,
        11,
        12,
        13,
        14
      ],
      "matrix": [
        1.0,
        0.0,
        0.0,
        0.0,
        0.0,
        2.220446049250313e-16,
        -1.0,
        0.0,
        0.0,
        1.0,
        2.220446049250313e-16,
        0.0,
        0.0,
        0.0,
        0.0,
        1.0
      ],
      "name": "model"
    },
    {
      "mesh": 0,
      "name": "model_tex_u1_v1_0"
    },
    {
      "mesh": 1,
      "name": "model_tex_u1_v1_0"
    },
    {
      "mesh": 2,
      "name": "model_tex_u1_v1_0"
    },
    {
      "mesh": 3,
      "name": "model_tex_u1_v1_0"
    },
    {
      "mesh": 4,
      "name": "model_tex_u1_v1_0"
    },
    {
      "mesh": 5,
      "name": "model_tex_u1_v1_0"
    },
    {
      "mesh": 6,
      "name": "model_tex_u1_v1_0"
    },
    {
      "mesh": 7,
      "name": "model_tex_u1_v1_0"
    },
    {
      "mesh": 8,
      "name": "model_tex_u1_v1_0"
    },
    {
      "mesh": 9,
      "name": "model_tex_u1_v1_0"
    },
    {
      "mesh": 10,
      "name": "model_tex_u1_v1_0"
    }
  ],
  "samplers": [
    {
      "magFilter": 9729,
      "minFilter": 9987,
      "wrapS": 10497,
      "wrapT": 10497
    }
  ],
  "scene": 0,
  "scenes": [
    {
      "name": "Sketchfab_Scene",
      "nodes": [
        0
      ]
    }
  ],
  "textures": [
    {
      "sampler": 0,
      "source": 0
    }
  ]
}
