<svg width="2048" height="2048" viewBox="0 0 2048 2048" fill="none" xmlns="http://www.w3.org/2000/svg">
<circle cx="1024" cy="1024" r="1024" fill="#000065"/>
<circle cx="1024" cy="1024" r="1024" fill="#000065"/>
<path d="M950 1914C950 1955.42 983.579 1989 1025 1989C1066.42 1989 1100 1955.42 1100 1914L950 1914ZM1100 1914L1100 364L950 364L950 1914L1100 1914Z" fill="#F2A900"/>
<path d="M1025 369.828C1025 363.543 1025.61 312.728 1051.77 273.03C1077.93 233.332 1124.78 223 1152.16 223C1185.02 223 1213 223 1258.63 257.804C1281.15 274.974 1294.78 288.202 1303.41 312.185C1307.92 335.568 1310.96 355.146 1303.41 370" stroke="#F2A900" stroke-width="150" stroke-linecap="round"/>
<path d="M602 1815C628.546 1769.31 795.014 1425.27 816.004 1399.95C844.402 1355.91 889.469 1280.5 926.51 1258.48C953.674 1233.16 981.454 1230.4 1008 1226" stroke="#F2A900" stroke-width="150" stroke-linecap="round"/>
<path d="M1433 1815C1405.21 1769.31 1230.95 1425.27 1208.98 1399.95C1179.25 1355.91 1132.08 1280.5 1093.3 1258.48C1064.87 1233.16 1035.79 1230.4 1008 1226" stroke="#F2A900" stroke-width="150" stroke-linecap="round"/>
<path d="M801.243 823.318C801.243 958.468 873.94 1011 975.259 1038.5C1133.13 1081.34 1291.2 949.125 1265.57 777.719C1248.35 662.629 1166.76 579.973 1106.59 563.523C1014.31 538.294 893.807 526.567 801.243 563.523C728.257 592.663 682.81 627.274 630.297 685.396C557.268 766.225 447.895 900.589 548.66 1182.38C718.215 1656.55 1269.48 1782.5 1426.18 1242.37C1488.88 1026.28 1407.05 851.573 1544.5 719.5C1598.9 667.229 1677.97 652.842 1738.24 671.072C1899.36 719.81 1882.76 888.766 1806.5 939C1769.6 963.307 1699.5 987.364 1644.77 924.084" stroke="#F2A900" stroke-width="150" stroke-linecap="round"/>
</svg>
