<svg width="608" height="606" viewBox="0 0 608 606" fill="none" xmlns="http://www.w3.org/2000/svg">
<circle cx="303.086" cy="303" r="303" fill="#000065"/>
<circle cx="303.086" cy="303" r="303" fill="#000065"/>
<path d="M299.041 514.717L298.828 81.7079" stroke="#F2A900" stroke-width="25.5337"/>
<path d="M299.043 510.036C299.043 515.475 299.043 521.753 298.197 527.139C297.351 532.525 295.108 536.584 290.13 544.752C287.223 549.523 280.576 555.178 275.078 556.627C266.478 558.894 256.892 558.92 250.206 556.627C246.897 555.492 244.204 554.008 241.795 551.59C240.713 550.504 239.896 549.25 238.859 548.135C229.543 538.119 231.193 522.623 230.953 521.753" stroke="#F2A900" stroke-width="25.5337" stroke-linecap="round"/>
<path d="M298.828 81.6681C298.828 80.2125 298.968 68.4438 304.987 59.2498C311.007 50.0559 321.785 47.6629 328.084 47.6629C335.644 47.6629 342.083 47.6629 352.581 55.7234C357.761 59.6999 360.898 62.7637 362.882 68.3179C363.92 73.7336 364.62 78.2676 362.882 81.7078" stroke="#F2A900" stroke-width="25.5337" stroke-linecap="round"/>
<path d="M123.342 423.401C96.6727 423.401 95.7704 455.219 111.489 467.941C117.372 472.702 131.809 478.473 147.472 472.763C163.135 467.053 174.155 456.036 181.479 443.324C187.547 432.791 246.53 324.678 251.328 318.841C257.819 308.69 268.12 291.305 276.586 286.23C282.795 280.393 289.145 279.758 295.212 278.743" stroke="#F2A900" stroke-width="25.5337" stroke-linecap="round"/>
<path d="M472.376 423.401C499.074 423.401 499.978 455.219 484.242 467.941C478.352 472.702 463.9 478.473 448.22 472.763C432.539 467.053 421.507 456.036 414.175 443.324C408.101 432.791 349.053 324.678 344.25 318.841C337.752 308.69 327.44 291.305 318.964 286.23C312.748 280.393 306.391 279.758 300.317 278.743" stroke="#F2A900" stroke-width="25.5337" stroke-linecap="round"/>
<path d="M257.552 175.545C235.955 211.19 262.114 233.226 288.086 237.57C324.998 243.744 359.804 214.976 353.942 175.545C350.005 149.07 335.121 130.692 319.045 126.271C297.942 120.467 268.925 117.769 247.756 126.271C231.065 132.974 220.672 140.936 208.663 154.307C191.962 172.901 166.95 203.811 189.994 268.636C228.769 377.716 351.475 391.671 386.71 277.785C399.258 237.227 418.909 164.758 437.051 149.07C450.13 137.759 466.444 136.743 480.226 140.936C517.072 152.148 513.275 191.015 495.836 202.571C487.398 208.163 471.366 213.697 458.85 199.14" stroke="#F2A900" stroke-width="25.5337" stroke-linecap="round"/>
</svg>
